<?xml version="1.0" encoding="UTF-8"?>
<svg id="Layer_2" data-name="Layer 2" xmlns="http://www.w3.org/2000/svg" viewBox="0 0 1750.26 756.01">
  <defs>
    <style>
      .cls-1 {
        fill: #e6e6e6;
      }
    </style>
  </defs>
  <g id="Layer_1-2" data-name="Layer 1">
    <g>
      <g>
        <polygon class="cls-1" points="255.91 512.66 341.51 425.58 341.51 258 256.39 171.41 182.25 171.41 182.25 170.91 182.5 170.9 267.87 170.9 353.28 257.79 353.28 425.77 267.87 512.66 255.91 512.66"/>
        <path d="M267.76,171.15l85.27,86.74v167.78l-85.27,86.74h-11.26l85.26-86.73v-167.78l-85.27-86.74h-74s85.27,0,85.27,0M267.97,170.65h-85.98v1h.5s73.79,0,73.79,0l84.98,86.44v167.38l-85.12,86.58-.84.85h12.66l.15-.15,85.27-86.74.14-.15v-168.19l-.14-.15-85.27-86.74-.15-.15h0Z"/>
      </g>
      <g>
        <polygon class="cls-1" points=".25 683.33 .25 172.48 170.07 .26 182.04 .26 12.02 172.68 12.02 682.83 343.35 682.83 342.85 683.33 342.74 683.33 .25 683.33"/>
        <path d="M181.44.51L11.77,172.58v510.5h330.98,0s-342.23,0-342.23,0V172.59L170.18.51h11.26M182.63,0h-12.66l-.15.15L.14,172.23l-.14.15v511.2h342.94l.15-.15.85-.85h-1.2s-330.48,0-330.48,0V172.78L181.8.86l.84-.85h0Z"/>
      </g>
      <g>
        <polygon class="cls-1" points="528.82 683.33 528.82 280.06 663.3 145.59 675.27 145.59 540.58 280.26 540.58 682.83 663.64 682.83 663.64 683.33 663.39 683.33 528.82 683.33"/>
        <path d="M674.66,145.84l-134.33,134.31v402.92h123.05s-134.32,0-134.32,0v-402.92l134.33-134.32h11.26M675.87,145.34h-12.67l-.15.15-134.33,134.32-.15.15v403.63h135.32v-1h-.5s-122.55,0-122.55,0v-402.22l134.18-134.16.85-.85h0Z"/>
      </g>
      <g>
        <polygon class="cls-1" points="674.42 280.41 674.42 279.91 674.67 279.9 865.62 279.9 865.12 280.4 865.01 280.41 674.42 280.41"/>
        <path d="M865.01,280.15h0s-190.34,0-190.34,0h0s190.34,0,190.34,0M865.01,279.65h-190.84v1h.5s190.34,0,190.34,0h.2l.15-.14.87-.86h-1.21Z"/>
      </g>
      <g>
        <polygon class="cls-1" points="674.39 481.91 674.39 481.41 674.64 481.41 798.22 481.41 797.72 481.91 797.61 481.91 674.39 481.91"/>
        <path d="M797.62,481.66h0s-122.96,0-122.96,0h0s122.97,0,122.97,0M797.62,481.16h-123.47v1h.5s122.96,0,122.96,0h.2l.15-.14.87-.86h-1.21Z"/>
      </g>
      <g>
        <polygon class="cls-1" points="1155.9 278.23 1217.4 145.59 1229.21 145.59 1161.81 290.97 1155.9 278.23"/>
        <path d="M1228.82,145.84l-67.01,144.53-5.63-12.15,61.38-132.39h11.26M1229.6,145.34h-12.37l-.13.29-61.38,132.39-.1.21.1.21,5.63,12.15.45.98.45-.98,67.01-144.53.33-.71h0Z"/>
      </g>
      <g>
        <polygon class="cls-1" points="1083.26 683.33 1083.26 481.82 948.8 213.08 948.8 145.59 960.57 145.59 960.57 212.95 1095.03 481.69 1095.03 682.83 1217.95 682.83 1217.95 683.33 1217.7 683.33 1083.26 683.33"/>
        <path d="M960.32,145.84v67.17l134.46,268.74v201.32h122.92s-134.18,0-134.18,0v-201.32l-134.46-268.74v-67.18h11.27M960.82,145.34h-12.27v67.8l.05.11,134.4,268.63v201.71h135.18v-1h-.5s-122.42,0-122.42,0v-200.94l-.05-.11-134.4-268.63v-67.55h0Z"/>
      </g>
      <g>
        <polygon class="cls-1" points="1603.94 415.23 1603.94 347.95 1542.31 286.32 1548.3 280.33 1615.71 347.73 1615.71 415.23 1603.94 415.23"/>
        <path d="M1548.3,280.68l67.16,67.16v67.15h-11.27v-67.14l-61.53-61.53,5.64-5.64M1548.3,279.97l-.35.35-5.64,5.64-.35.35.35.35,61.38,61.38v67.43h12.27v-67.85l-.15-.15-67.16-67.16-.35-.35h0Z"/>
      </g>
      <g>
        <polygon class="cls-1" points="1604.11 683.33 1604.11 549.03 1480.98 549.03 1480.98 548.53 1481.23 548.52 1615.87 548.52 1615.87 682.83 1738.75 682.83 1738.75 683.33 1738.5 683.33 1604.11 683.33"/>
        <path d="M1615.62,548.77v134.3h122.87s-134.14,0-134.14,0v-134.3h-123.12s134.39,0,134.39,0M1616.12,548.27h-135.39v1h.5s122.62,0,122.62,0v134.3h135.14v-1h-.5s-122.37,0-122.37,0v-134.3h0Z"/>
      </g>
      <g>
        <polygon class="cls-1" points="1335.26 683.33 1335.26 280.59 1469.74 145.59 1481.7 145.59 1347.03 280.79 1347.03 682.83 1470.22 682.83 1470.22 683.33 1469.97 683.33 1335.26 683.33"/>
        <path d="M1481.1,145.84l-134.32,134.85v402.39h123.18s-134.45,0-134.45,0v-402.39l134.33-134.85h11.26M1482.3,145.34h-12.67l-.15.15-134.33,134.85-.15.15v403.09h135.45v-1h-.5s-122.68,0-122.68,0v-401.68l134.17-134.7.85-.85h0Z"/>
      </g>
      <g>
        <polygon class="cls-1" points="342.14 683.33 512.16 512.34 512.16 88.08 426.03 .76 180.84 .76 181.34 .26 181.45 .25 437.51 .25 523.93 87.87 523.93 512.54 354.11 683.33 342.14 683.33"/>
        <path d="M437.4.5l86.28,87.47v424.46l-169.68,170.64h-11.26l169.67-170.64V87.98L426.14.51h-244.7,0s255.96,0,255.96,0M437.61,0H181.24l-.15.15-.85.85h1.2s244.49,0,244.49,0l85.99,87.18v424.05l-169.53,170.49-.85.85h12.67l.15-.15,169.68-170.64.15-.15V87.77l-.14-.15L437.76.15l-.15-.15h0Z"/>
      </g>
      <g>
        <polygon class="cls-1" points="170.98 512.67 170.98 170.91 182.75 170.91 182.75 512.16 257.17 512.16 256.6 512.66 256.5 512.67 170.98 512.67"/>
        <path d="M182.5,171.16v341.25h74.01,0s-85.27,0-85.27,0V171.16h11.27M183,170.66h-12.27v342.26h85.98l.15-.15.82-.85h-1.17s-73.51,0-73.51,0V170.66h0Z"/>
      </g>
      <g>
        <rect class="cls-1" x="663.13" y="481.41" width="11.77" height="201.91"/>
        <path d="M674.64,481.66v201.41s-11.26,0-11.26,0v-201.41s11.26,0,11.26,0M675.14,481.16h-12.27v201.91s.01.5.01.5h12.27v-201.91s-.01-.5-.01-.5h0Z"/>
      </g>
      <g>
        <polygon class="cls-1" points="797.01 481.91 864.61 414.36 864.6 347.56 663.15 347.56 663.15 279.91 674.92 279.91 674.92 347.06 876.37 347.06 876.38 414.56 808.98 481.91 797.01 481.91"/>
        <path d="M674.67,280.16v67.15h201.45s0,67.15,0,67.15l-67.25,67.2h-11.26l67.25-67.19v-67.15s-201.46,0-201.46,0v-67.15h11.27M675.17,279.66h-12.27v68.15h201.45s0,66.44,0,66.44l-67.1,67.05-.85.85h12.67l.15-.15,67.25-67.2.15-.15v-67.36s0-.5,0-.5h-201.45v-67.15h0Z"/>
      </g>
      <g>
        <polygon class="cls-1" points="864.41 280.4 931.77 212.9 931.77 146.09 674.06 146.09 674.56 145.59 674.67 145.59 943.54 145.59 943.54 213.1 876.38 280.4 864.41 280.4"/>
        <path d="M943.29,145.84v67.16l-67.02,67.16h-11.26l67.01-67.15v-67.16h-257.36,0s268.62,0,268.62,0M943.79,145.34h-269.33l-.15.15-.82.85h1.17s256.86,0,256.86,0v66.45l-66.86,67-.85.85h12.67l.15-.15,67.02-67.16.15-.15v-67.86h0Z"/>
      </g>
      <g>
        <polygon class="cls-1" points="1217.45 683.33 1217.45 481.7 1351.74 212.96 1351.74 146.09 1228.42 146.09 1228.66 145.59 1228.82 145.59 1363.51 145.59 1363.51 213.07 1229.21 481.81 1229.21 683.33 1217.45 683.33"/>
        <path d="M1363.26,145.84v67.18l-134.3,268.74v201.32h-11.27v-201.32l134.3-268.74v-67.18h-123.17,0s134.43,0,134.43,0M1363.76,145.34h-135.26l-.13.29-.32.71h.77s122.67,0,122.67,0v66.56l-134.24,268.63-.05.11v201.93h12.27v-201.71s134.24-268.63,134.24-268.63l.05-.11v-67.8h0Z"/>
      </g>
      <g>
        <polygon class="cls-1" points="1083.35 146.09 960.07 146.09 960.07 145.59 960.32 145.59 1094.94 145.59 1156.45 278.23 1150.54 290.98 1083.35 146.09"/>
        <path d="M1094.78,145.84l61.4,132.4-5.64,12.15-67.03-144.54h-123.19s134.46,0,134.46,0M1095.1,145.34h-135.28v1h.5s122.87,0,122.87,0l66.9,144.25.45.98.45-.98,5.64-12.15.1-.21-.1-.21-61.4-132.4-.13-.29h0Z"/>
      </g>
      <g>
        <rect class="cls-1" x="1469.72" y="548.53" width="11.77" height="134.79"/>
        <path d="M1481.23,548.78v134.29h-11.27v-134.29h11.27M1481.73,548.28h-12.27v135.29h12.27v-135.29h0Z"/>
      </g>
      <g>
        <polygon class="cls-1" points="1469.63 415.24 1469.63 347.74 1537.03 280.33 1543.02 286.32 1481.39 347.94 1481.39 414.73 1604.44 414.73 1604.44 415.23 1604.19 415.24 1469.63 415.24"/>
        <path d="M1537.03,280.69l5.63,5.63-61.52,61.52v67.15h123.05s-134.31,0-134.31,0v-67.15l67.16-67.16M1537.03,279.98l-.35.35-67.16,67.16-.15.15v67.85h135.31v-1h-.5s-122.55,0-122.55,0v-66.44l61.37-61.37.35-.35-.35-.35-5.63-5.63-.35-.35h0Z"/>
      </g>
      <g>
        <polygon class="cls-1" points="1738.25 683.33 1738.25 280.8 1604.1 146.09 1480.5 146.09 1481 145.59 1481.11 145.59 1615.58 145.59 1750.01 280.59 1750.01 683.33 1738.25 683.33"/>
        <path d="M1615.47,145.84l134.29,134.85v402.39h-11.27v-402.38l-134.29-134.85h-123.1,0s134.36,0,134.36,0M1615.68,145.34h-134.78l-.15.15-.83.85h1.18s122.9,0,122.9,0l134,134.56v402.67h12.27v-403.09l-.15-.15-134.29-134.85-.15-.15h0Z"/>
      </g>
      <g>
        <polygon class="cls-1" points="812.73 755.76 851.53 717 851.53 678.48 863.93 678.48 863.93 717.21 825.34 755.76 812.73 755.76"/>
        <path d="M863.68,678.73v38.37s-38.44,38.41-38.44,38.41h-11.9l38.44-38.41v-38.37s11.9,0,11.9,0M864.18,678.23h-12.4s-.5,0-.5,0v38.66s-38.3,38.26-38.3,38.26l-.85.85h13.31l.15-.15,38.44-38.41.15-.15v-38.58s0-.5,0-.5h0Z"/>
      </g>
      <g>
        <polygon class="cls-1" points="813.08 640.24 851.63 601.7 864.23 601.7 825.48 640.45 825.48 678.98 813.08 678.99 813.08 640.24"/>
        <path d="M863.63,601.95l-38.4,38.39v38.39s-11.9,0-11.9,0v-38.39s38.4-38.39,38.4-38.39h11.9M864.84,601.45h-13.31l-.15.15-38.4,38.39-.15.15v38.6s0,.5,0,.5h12.4s.5,0,.5,0v-38.68s38.25-38.25,38.25-38.25l.85-.85h0Z"/>
      </g>
      <g>
        <polygon class="cls-1" points="889.51 755.76 928.25 717.02 928.25 601.7 940.65 601.7 940.65 717.23 902.12 755.76 889.51 755.76"/>
        <path d="M940.4,601.95v115.17l-38.38,38.38h-11.9l38.38-38.38v-115.17h11.9M940.9,601.45h-12.9v115.47l-38.24,38.24-.85.85h13.31l.15-.15,38.38-38.38.15-.15v-115.88h0Z"/>
      </g>
      <g>
        <rect class="cls-1" x="825.23" y="678.48" width="26.55" height=".5"/>
        <path d="M851.78,678.73h0s-26.55,0-26.55,0h0s26.55,0,26.55,0M851.78,678.23h-26.55s-.5,0-.5,0v1h.5s26.55,0,26.55,0h.5v-1h-.5Z"/>
      </g>
    </g>
  </g>
</svg>