<?xml version="1.0" encoding="UTF-8"?>
<svg id="uuid-ede19e79-2ebe-4122-aede-9969c50dd717" data-name="Layer 2" xmlns="http://www.w3.org/2000/svg" viewBox="0 0 643.52 527">
  <defs>
    <style>
      .uuid-634a244d-aac5-4d81-8b07-05dbd66dcc35 {
        fill: #efefef;
      }

      .uuid-aa89a1e3-26d2-4f09-af7a-3248318b0e30 {
        fill: #1a1a1a;
      }
    </style>
  </defs>
  <g id="uuid-8b392a24-3a5e-4562-b9e4-8962607ec2de" data-name="Layer 1">
    <g>
      <path class="uuid-634a244d-aac5-4d81-8b07-05dbd66dcc35" d="M332.27,524c-82.43,0-159.9-27.16-218.15-76.47-58.1-49.19-90.1-114.55-90.1-184.03,0-43.01,12.67-85.63,36.63-123.26l3.29-5.16-45.16,4.16,62.05-26.46.46-.54c27.95-33.06,65.15-60.51,107.59-79.4C232.75,13.32,282.34,3,332.27,3c82.43,0,159.9,27.16,218.15,76.47,58.1,49.19,90.1,114.55,90.1,184.03s-32,134.84-90.1,184.03c-58.25,49.31-135.72,76.47-218.15,76.47Z"/>
      <path class="uuid-aa89a1e3-26d2-4f09-af7a-3248318b0e30" d="M332.27,6c41.33,0,81.41,6.85,119.13,20.36,36.38,13.03,69.05,31.67,97.08,55.4,27.96,23.67,49.9,51.21,65.21,81.86,15.81,31.65,23.83,65.25,23.83,99.88s-8.02,68.24-23.83,99.88c-15.31,30.65-37.25,58.19-65.21,81.86-28.03,23.73-60.7,42.37-97.08,55.4-37.72,13.51-77.8,20.36-119.13,20.36s-81.41-6.85-119.13-20.36c-36.38-13.03-69.05-31.67-97.08-55.4-27.96-23.67-49.9-51.21-65.21-81.86-15.81-31.65-23.83-65.25-23.83-99.88,0-21.57,3.17-43,9.42-63.71,6.07-20.12,15.07-39.61,26.74-57.94l6.57-10.32-12.18,1.12-20.02,1.84,43.8-18.67,1.31-.56.92-1.09c27.66-32.71,64.49-59.89,106.51-78.59,21.46-9.55,44.25-16.91,67.74-21.88,24.2-5.12,49.25-7.71,74.44-7.71M332.27,0c-104.41,0-196.81,43.52-253.27,110.31L0,143.99l58.11-5.35c-23.67,37.16-37.1,79.69-37.1,124.87,0,145.53,139.35,263.5,311.25,263.5s311.25-117.97,311.25-263.5S504.17,0,332.27,0h0Z"/>
    </g>
  </g>
</svg>