<?xml version="1.0" encoding="UTF-8"?>
<svg id="uuid-236894c2-8c43-45b5-a7ca-f441571a43fb" data-name="Layer 2" xmlns="http://www.w3.org/2000/svg" viewBox="0 0 375.02 621.27">
  <defs>
    <style>
      .uuid-16024d34-f871-4637-9995-7b375a4a8b99 {
        fill: #efefef;
      }

      .uuid-5275c83d-725c-44ce-8911-ed6d658f0bea {
        fill: #1a1a1a;
      }
    </style>
  </defs>
  <g id="uuid-948166fe-e400-4d5a-a1dc-23deb0d2bd72" data-name="Layer 1">
    <g>
      <path class="uuid-16024d34-f871-4637-9995-7b375a4a8b99" d="M187.51,618.27C85.77,618.27,3,480.26,3,310.63S85.77,3,187.51,3s184.51,138,184.51,307.63c0,77.28-17.3,151.18-48.72,208.1l-.97,1.76,40.24,49.98-52.31-30.3-1.57,2.29c-33.61,48.89-76.65,75.81-121.18,75.81Z"/>
      <path class="uuid-5275c83d-725c-44ce-8911-ed6d658f0bea" d="M187.51,6c24.06,0,47.46,7.85,69.54,23.32,21.64,15.16,41.12,36.95,57.91,64.76,16.92,28.02,30.21,60.7,39.51,97.12,9.65,37.81,14.55,77.99,14.55,119.43,0,76.78-17.17,150.17-48.34,206.65l-1.95,3.53,2.53,3.14,28.86,35.84-35.95-20.83-4.81-2.78-3.15,4.58c-16.29,23.69-34.69,42.15-54.72,54.89-20.45,13.02-41.98,19.61-63.99,19.61-24.06,0-47.46-7.85-69.54-23.32-21.64-15.16-41.12-36.95-57.91-64.76-16.92-28.03-30.21-60.7-39.51-97.12-9.65-37.81-14.55-77.99-14.55-119.43s4.9-81.62,14.55-119.43c9.3-36.42,22.59-69.1,39.51-97.12,16.79-27.81,36.27-49.6,57.91-64.76,22.09-15.48,45.49-23.32,69.54-23.32M187.51,0C83.95,0,0,139.08,0,310.63s83.95,310.63,187.51,310.63c47.37,0,90.64-29.1,123.65-77.11h0s63.86,37,63.86,37l-49.09-60.97s0,0,0,0c30.49-55.24,49.09-128.8,49.09-209.55C375.02,139.08,291.07,0,187.51,0h0Z"/>
    </g>
  </g>
</svg>